<mxfile host="app.diagrams.net" modified="2022-07-28T14:01:37.971Z" agent="5.0 (Windows NT 10.0; Win64; x64) AppleWebKit/537.36 (KHTML, like Gecko) Chrome/103.0.0.0 Safari/537.36" etag="vJR6QpWeW_YWV0-HSF94" version="20.2.1" type="github">
  <diagram id="in0IW8GyD2lMYeX72vuO" name="Página-1">
    <mxGraphModel dx="1342" dy="1382" grid="0" gridSize="10" guides="1" tooltips="1" connect="1" arrows="1" fold="1" page="0" pageScale="1" pageWidth="827" pageHeight="1169" background="#999999" math="0" shadow="0">
      <root>
        <mxCell id="0" />
        <mxCell id="1" parent="0" />
        <mxCell id="2kRDgr5zWMboqsdmiVaj-25" value="" style="edgeStyle=orthogonalEdgeStyle;rounded=0;orthogonalLoop=1;jettySize=auto;html=1;" edge="1" parent="1" source="2kRDgr5zWMboqsdmiVaj-1" target="2kRDgr5zWMboqsdmiVaj-24">
          <mxGeometry relative="1" as="geometry" />
        </mxCell>
        <mxCell id="2kRDgr5zWMboqsdmiVaj-35" value="" style="edgeStyle=orthogonalEdgeStyle;rounded=0;orthogonalLoop=1;jettySize=auto;html=1;" edge="1" parent="1" source="2kRDgr5zWMboqsdmiVaj-1" target="2kRDgr5zWMboqsdmiVaj-5">
          <mxGeometry relative="1" as="geometry">
            <Array as="points">
              <mxPoint x="87" y="-532" />
              <mxPoint x="87" y="-629" />
              <mxPoint x="10" y="-629" />
            </Array>
          </mxGeometry>
        </mxCell>
        <mxCell id="2kRDgr5zWMboqsdmiVaj-36" value="" style="edgeStyle=orthogonalEdgeStyle;rounded=0;orthogonalLoop=1;jettySize=auto;html=1;" edge="1" parent="1" target="2kRDgr5zWMboqsdmiVaj-22">
          <mxGeometry relative="1" as="geometry">
            <mxPoint x="87" y="-532" as="sourcePoint" />
            <Array as="points">
              <mxPoint x="10" y="-457" />
            </Array>
          </mxGeometry>
        </mxCell>
        <mxCell id="2kRDgr5zWMboqsdmiVaj-1" value="Início" style="ellipse;whiteSpace=wrap;html=1;fillColor=#6d8764;fontColor=#ffffff;strokeColor=#3A5431;" vertex="1" parent="1">
          <mxGeometry x="-51" y="-572" width="120" height="80" as="geometry" />
        </mxCell>
        <mxCell id="2kRDgr5zWMboqsdmiVaj-8" value="" style="edgeStyle=orthogonalEdgeStyle;rounded=0;orthogonalLoop=1;jettySize=auto;html=1;entryX=0;entryY=0.5;entryDx=0;entryDy=0;" edge="1" parent="1" source="2kRDgr5zWMboqsdmiVaj-5" target="2kRDgr5zWMboqsdmiVaj-16">
          <mxGeometry relative="1" as="geometry" />
        </mxCell>
        <mxCell id="2kRDgr5zWMboqsdmiVaj-5" value="Informar idade" style="shape=display;whiteSpace=wrap;html=1;fillColor=#dae8fc;strokeColor=#6c8ebf;" vertex="1" parent="1">
          <mxGeometry x="-53" y="-743" width="125" height="64" as="geometry" />
        </mxCell>
        <mxCell id="2kRDgr5zWMboqsdmiVaj-10" value="" style="edgeStyle=orthogonalEdgeStyle;rounded=0;orthogonalLoop=1;jettySize=auto;html=1;entryX=0;entryY=0;entryDx=0;entryDy=0;" edge="1" parent="1" source="2kRDgr5zWMboqsdmiVaj-7" target="2kRDgr5zWMboqsdmiVaj-26">
          <mxGeometry relative="1" as="geometry">
            <Array as="points">
              <mxPoint x="472" y="-656" />
            </Array>
          </mxGeometry>
        </mxCell>
        <mxCell id="2kRDgr5zWMboqsdmiVaj-51" value="" style="edgeStyle=orthogonalEdgeStyle;rounded=0;orthogonalLoop=1;jettySize=auto;html=1;entryX=0;entryY=0.5;entryDx=0;entryDy=0;entryPerimeter=0;" edge="1" parent="1" source="2kRDgr5zWMboqsdmiVaj-7" target="2kRDgr5zWMboqsdmiVaj-9">
          <mxGeometry relative="1" as="geometry" />
        </mxCell>
        <mxCell id="2kRDgr5zWMboqsdmiVaj-7" value="Maior de 18?" style="rhombus;whiteSpace=wrap;html=1;fillColor=#e1d5e7;strokeColor=#9673a6;" vertex="1" parent="1">
          <mxGeometry x="307" y="-766.5" width="111" height="111" as="geometry" />
        </mxCell>
        <mxCell id="2kRDgr5zWMboqsdmiVaj-13" value="" style="edgeStyle=orthogonalEdgeStyle;rounded=0;orthogonalLoop=1;jettySize=auto;html=1;" edge="1" parent="1" source="2kRDgr5zWMboqsdmiVaj-9" target="2kRDgr5zWMboqsdmiVaj-12">
          <mxGeometry relative="1" as="geometry" />
        </mxCell>
        <mxCell id="2kRDgr5zWMboqsdmiVaj-9" value="Negado" style="shape=display;whiteSpace=wrap;html=1;fillColor=#dae8fc;strokeColor=#6c8ebf;" vertex="1" parent="1">
          <mxGeometry x="539" y="-743" width="125" height="64" as="geometry" />
        </mxCell>
        <mxCell id="2kRDgr5zWMboqsdmiVaj-11" value="Não" style="text;html=1;align=center;verticalAlign=middle;resizable=0;points=[];autosize=1;strokeColor=#b85450;fillColor=#f8cecc;" vertex="1" parent="1">
          <mxGeometry x="452" y="-726" width="40" height="26" as="geometry" />
        </mxCell>
        <mxCell id="2kRDgr5zWMboqsdmiVaj-12" value="Fim" style="ellipse;whiteSpace=wrap;html=1;fillColor=#6d8764;fontColor=#ffffff;strokeColor=#3A5431;" vertex="1" parent="1">
          <mxGeometry x="751" y="-751" width="120" height="80" as="geometry" />
        </mxCell>
        <mxCell id="2kRDgr5zWMboqsdmiVaj-18" value="" style="edgeStyle=orthogonalEdgeStyle;rounded=0;orthogonalLoop=1;jettySize=auto;html=1;" edge="1" parent="1" source="2kRDgr5zWMboqsdmiVaj-16" target="2kRDgr5zWMboqsdmiVaj-7">
          <mxGeometry relative="1" as="geometry" />
        </mxCell>
        <mxCell id="2kRDgr5zWMboqsdmiVaj-16" value="Idade" style="shape=parallelogram;perimeter=parallelogramPerimeter;whiteSpace=wrap;html=1;fixedSize=1;fillColor=#fff2cc;strokeColor=#d6b656;" vertex="1" parent="1">
          <mxGeometry x="144" y="-741" width="120" height="60" as="geometry" />
        </mxCell>
        <mxCell id="2kRDgr5zWMboqsdmiVaj-42" value="" style="edgeStyle=orthogonalEdgeStyle;rounded=0;orthogonalLoop=1;jettySize=auto;html=1;" edge="1" parent="1" source="2kRDgr5zWMboqsdmiVaj-22" target="2kRDgr5zWMboqsdmiVaj-40">
          <mxGeometry relative="1" as="geometry" />
        </mxCell>
        <mxCell id="2kRDgr5zWMboqsdmiVaj-22" value="Informar data do evento" style="shape=display;whiteSpace=wrap;html=1;fillColor=#dae8fc;strokeColor=#6c8ebf;" vertex="1" parent="1">
          <mxGeometry x="-53" y="-401" width="125" height="64" as="geometry" />
        </mxCell>
        <mxCell id="2kRDgr5zWMboqsdmiVaj-38" value="" style="edgeStyle=orthogonalEdgeStyle;rounded=0;orthogonalLoop=1;jettySize=auto;html=1;" edge="1" parent="1" source="2kRDgr5zWMboqsdmiVaj-24" target="2kRDgr5zWMboqsdmiVaj-37">
          <mxGeometry relative="1" as="geometry" />
        </mxCell>
        <mxCell id="2kRDgr5zWMboqsdmiVaj-24" value="Listar participantes e palestrantes" style="shape=display;whiteSpace=wrap;html=1;fillColor=#dae8fc;strokeColor=#6c8ebf;" vertex="1" parent="1">
          <mxGeometry x="121" y="-564" width="125" height="64" as="geometry" />
        </mxCell>
        <mxCell id="2kRDgr5zWMboqsdmiVaj-29" value="" style="edgeStyle=orthogonalEdgeStyle;rounded=0;orthogonalLoop=1;jettySize=auto;html=1;startArrow=none;entryX=0.568;entryY=1;entryDx=0;entryDy=0;entryPerimeter=0;" edge="1" parent="1" source="2kRDgr5zWMboqsdmiVaj-30" target="2kRDgr5zWMboqsdmiVaj-9">
          <mxGeometry relative="1" as="geometry">
            <mxPoint x="620" y="-532" as="targetPoint" />
          </mxGeometry>
        </mxCell>
        <mxCell id="2kRDgr5zWMboqsdmiVaj-53" value="" style="edgeStyle=orthogonalEdgeStyle;rounded=0;orthogonalLoop=1;jettySize=auto;html=1;entryX=0;entryY=0;entryDx=0;entryDy=0;startArrow=none;exitX=1;exitY=0.462;exitDx=0;exitDy=0;exitPerimeter=0;" edge="1" parent="1" source="2kRDgr5zWMboqsdmiVaj-54" target="2kRDgr5zWMboqsdmiVaj-46">
          <mxGeometry relative="1" as="geometry">
            <Array as="points">
              <mxPoint x="581" y="-451" />
            </Array>
          </mxGeometry>
        </mxCell>
        <mxCell id="2kRDgr5zWMboqsdmiVaj-26" value="Mais de 100 participantes?" style="rhombus;whiteSpace=wrap;html=1;fillColor=#e1d5e7;strokeColor=#9673a6;" vertex="1" parent="1">
          <mxGeometry x="443" y="-588.5" width="114" height="113" as="geometry" />
        </mxCell>
        <mxCell id="2kRDgr5zWMboqsdmiVaj-30" value="Sim" style="text;html=1;align=center;verticalAlign=middle;resizable=0;points=[];autosize=1;strokeColor=#b85450;fillColor=#f8cecc;" vertex="1" parent="1">
          <mxGeometry x="590" y="-545" width="39" height="26" as="geometry" />
        </mxCell>
        <mxCell id="2kRDgr5zWMboqsdmiVaj-31" value="" style="edgeStyle=orthogonalEdgeStyle;rounded=0;orthogonalLoop=1;jettySize=auto;html=1;endArrow=none;" edge="1" parent="1" source="2kRDgr5zWMboqsdmiVaj-26" target="2kRDgr5zWMboqsdmiVaj-30">
          <mxGeometry relative="1" as="geometry">
            <mxPoint x="404" y="-532" as="sourcePoint" />
            <mxPoint x="536" y="-532" as="targetPoint" />
          </mxGeometry>
        </mxCell>
        <mxCell id="2kRDgr5zWMboqsdmiVaj-39" value="" style="edgeStyle=orthogonalEdgeStyle;rounded=0;orthogonalLoop=1;jettySize=auto;html=1;" edge="1" parent="1" source="2kRDgr5zWMboqsdmiVaj-37" target="2kRDgr5zWMboqsdmiVaj-26">
          <mxGeometry relative="1" as="geometry" />
        </mxCell>
        <mxCell id="2kRDgr5zWMboqsdmiVaj-37" value="Quantidade de&lt;br&gt;participantes" style="shape=parallelogram;perimeter=parallelogramPerimeter;whiteSpace=wrap;html=1;fixedSize=1;fillColor=#fff2cc;strokeColor=#d6b656;" vertex="1" parent="1">
          <mxGeometry x="277" y="-562" width="120" height="60" as="geometry" />
        </mxCell>
        <mxCell id="2kRDgr5zWMboqsdmiVaj-44" value="" style="edgeStyle=orthogonalEdgeStyle;rounded=0;orthogonalLoop=1;jettySize=auto;html=1;" edge="1" parent="1" source="2kRDgr5zWMboqsdmiVaj-40" target="2kRDgr5zWMboqsdmiVaj-43">
          <mxGeometry relative="1" as="geometry" />
        </mxCell>
        <mxCell id="2kRDgr5zWMboqsdmiVaj-40" value="Data do Evento" style="shape=parallelogram;perimeter=parallelogramPerimeter;whiteSpace=wrap;html=1;fixedSize=1;fillColor=#fff2cc;strokeColor=#d6b656;" vertex="1" parent="1">
          <mxGeometry x="115" y="-399" width="120" height="60" as="geometry" />
        </mxCell>
        <mxCell id="2kRDgr5zWMboqsdmiVaj-47" value="" style="edgeStyle=orthogonalEdgeStyle;rounded=0;orthogonalLoop=1;jettySize=auto;html=1;" edge="1" parent="1" source="2kRDgr5zWMboqsdmiVaj-43" target="2kRDgr5zWMboqsdmiVaj-45">
          <mxGeometry relative="1" as="geometry" />
        </mxCell>
        <mxCell id="2kRDgr5zWMboqsdmiVaj-43" value="Inserir data atual" style="shape=display;whiteSpace=wrap;html=1;fillColor=#dae8fc;strokeColor=#6c8ebf;" vertex="1" parent="1">
          <mxGeometry x="250" y="-401" width="125" height="64" as="geometry" />
        </mxCell>
        <mxCell id="2kRDgr5zWMboqsdmiVaj-48" value="" style="edgeStyle=orthogonalEdgeStyle;rounded=0;orthogonalLoop=1;jettySize=auto;html=1;" edge="1" parent="1" source="2kRDgr5zWMboqsdmiVaj-45" target="2kRDgr5zWMboqsdmiVaj-46">
          <mxGeometry relative="1" as="geometry" />
        </mxCell>
        <mxCell id="2kRDgr5zWMboqsdmiVaj-45" value="Data Atual" style="shape=parallelogram;perimeter=parallelogramPerimeter;whiteSpace=wrap;html=1;fixedSize=1;fillColor=#fff2cc;strokeColor=#d6b656;" vertex="1" parent="1">
          <mxGeometry x="403" y="-399" width="120" height="60" as="geometry" />
        </mxCell>
        <mxCell id="2kRDgr5zWMboqsdmiVaj-49" value="" style="edgeStyle=orthogonalEdgeStyle;rounded=0;orthogonalLoop=1;jettySize=auto;html=1;" edge="1" parent="1" source="2kRDgr5zWMboqsdmiVaj-46" target="2kRDgr5zWMboqsdmiVaj-30">
          <mxGeometry relative="1" as="geometry" />
        </mxCell>
        <mxCell id="2kRDgr5zWMboqsdmiVaj-60" value="" style="edgeStyle=orthogonalEdgeStyle;rounded=0;orthogonalLoop=1;jettySize=auto;html=1;entryX=0;entryY=0.5;entryDx=0;entryDy=0;entryPerimeter=0;" edge="1" parent="1" source="2kRDgr5zWMboqsdmiVaj-46" target="2kRDgr5zWMboqsdmiVaj-57">
          <mxGeometry relative="1" as="geometry" />
        </mxCell>
        <mxCell id="2kRDgr5zWMboqsdmiVaj-46" value="Data do evento passou?" style="rhombus;whiteSpace=wrap;html=1;fillColor=#e1d5e7;strokeColor=#9673a6;" vertex="1" parent="1">
          <mxGeometry x="552.5" y="-425.5" width="114" height="113" as="geometry" />
        </mxCell>
        <mxCell id="2kRDgr5zWMboqsdmiVaj-52" value="Sim" style="text;html=1;align=center;verticalAlign=middle;resizable=0;points=[];autosize=1;strokeColor=#82b366;fillColor=#d5e8d4;" vertex="1" parent="1">
          <mxGeometry x="429" y="-671" width="39" height="26" as="geometry" />
        </mxCell>
        <mxCell id="2kRDgr5zWMboqsdmiVaj-54" value="Não" style="text;html=1;align=center;verticalAlign=middle;resizable=0;points=[];autosize=1;strokeColor=#82b366;fillColor=#d5e8d4;" vertex="1" parent="1">
          <mxGeometry x="533" y="-463" width="40" height="26" as="geometry" />
        </mxCell>
        <mxCell id="2kRDgr5zWMboqsdmiVaj-55" value="" style="edgeStyle=orthogonalEdgeStyle;rounded=0;orthogonalLoop=1;jettySize=auto;html=1;entryX=0;entryY=0;entryDx=0;entryDy=0;endArrow=none;" edge="1" parent="1" source="2kRDgr5zWMboqsdmiVaj-26" target="2kRDgr5zWMboqsdmiVaj-54">
          <mxGeometry relative="1" as="geometry">
            <mxPoint x="500" y="-475.5" as="sourcePoint" />
            <mxPoint x="581" y="-397.25" as="targetPoint" />
          </mxGeometry>
        </mxCell>
        <mxCell id="2kRDgr5zWMboqsdmiVaj-61" style="edgeStyle=orthogonalEdgeStyle;rounded=0;orthogonalLoop=1;jettySize=auto;html=1;entryX=0.5;entryY=1;entryDx=0;entryDy=0;" edge="1" parent="1" source="2kRDgr5zWMboqsdmiVaj-57" target="2kRDgr5zWMboqsdmiVaj-12">
          <mxGeometry relative="1" as="geometry" />
        </mxCell>
        <mxCell id="2kRDgr5zWMboqsdmiVaj-57" value="Cadastro permitido" style="shape=display;whiteSpace=wrap;html=1;fillColor=#dae8fc;strokeColor=#6c8ebf;" vertex="1" parent="1">
          <mxGeometry x="748.5" y="-401" width="125" height="64" as="geometry" />
        </mxCell>
        <mxCell id="2kRDgr5zWMboqsdmiVaj-58" value="Não" style="text;html=1;align=center;verticalAlign=middle;resizable=0;points=[];autosize=1;strokeColor=#82b366;fillColor=#d5e8d4;" vertex="1" parent="1">
          <mxGeometry x="688" y="-382" width="40" height="26" as="geometry" />
        </mxCell>
      </root>
    </mxGraphModel>
  </diagram>
</mxfile>
